<svg xmlns="http://www.w3.org/2000/svg" width="1095.534" height="1095.534" viewBox="0 0 289.858 289.858"><path d="M285.646 39.835c-3.016.026-12.185.691-41.906 2.738l-110.067 7.565c-36.767 2.517-33.132 2.176-34.88 3.269-1.965 1.227-3.074 3.309-3.726 6.994l-13.324 60.474c-.434 2.223-1.905 5.721-.699 7.408 1.26 1.734 2.781 2.127 13.754 3.553l161.996 21.31c11.241 1.506 11.774-.878 12.269-2.116.392-.982.785-1.955 2.18-9.342l17.307-89.605c1.523-7.756 1.595-8.605.835-9.905-1.387-1.986-2.54-2.347-3.739-2.342zM68.233 136.861l-33.69 4.819-31.692 4.827c-2.531.917-3.555 3.438-2.346 5.776.746 1.442 2.603 2.302 8.46 3.915.776.214 1.808.519 2.293.679l164.042 46.95c2.878.864 7.457 1.942 9.96 1.95 1.892-.51 12.054-5.411 36.567-17.746l36.854-18.784c1.365-1.187 2.088-3.748 1.369-4.847-.143-.218-2.085-.666-4.316-.995l-27.87-4.074-147.108-21.669c-4.316-.936-8.496-1.412-12.524-.8zM52.17 175.971a.77.77 0 0 0-.188.001c-.651.137-13.559 27.817-13.559 29.075 0 1.288.927 2.869 2.033 3.469 1.225.665 2.001.676 3.776.053l16.416-5.134c15.894-4.767 16.157-4.864 17.841-6.622 1.923-3.555 3.382-7.301 5.688-12.44l-27.685-7.423c-1.915-.525-3.709-.928-4.322-.98zm164.781 21.61c-.271-.011-.697.19-1.483.649l-5.418 3.075c-5.809 3.513-11.32 7.165-17.463 10.063-4.984 3.119-7.18 3.799-9.676 2.996-2.435-.784-8.919-2.473-9.489-2.473-.337 0-.701.277-.811.617-.191.594-.797 2.296-2.292 6.438-2.407 6.197-4.48 12.454-6.651 18.345-1.036 2.808-2.846 9.266-2.818 10.053.028.776 1.713 2.366 3.016 2.845a6.66 6.66 0 0 0 2.792.323c15.178-6.142 26.75-13.89 39.66-20.651 3.951-2.062 5.401-3.506 5.97-5.942l1.951-8.677 1.293-5.821c2.205-9.797 2.345-10.711 1.782-11.601-.095-.15-.201-.233-.364-.239z" fill="#fff"/></svg>