<svg xmlns="http://www.w3.org/2000/svg" viewBox="0 0 181 148" fill-rule="evenodd" stroke-linejoin="round" stroke-miterlimit="2"><g transform="matrix(.281 0 0 .281 -41.8 -43.7)" fill-rule="nonzero"><path d="M391.8 450.599999999999c2.2896-40.824 22.248000000001-76.896 52.488-102.384 29.592000000001-25.056 69.336-40.392 112.968-40.392 43.416 0 83.16 15.314399999999 112.752 40.392 30.24 25.488 50.112 61.56 52.488 102.384 2.2896 41.904-14.58 81-44.064 109.944-30.24 29.376-73.008 47.952-121.176 47.952s-91.152-18.446399999999-121.176-47.952c-29.592-28.944-46.44-67.824-44.063999999999-109.728z" fill="#fff"/><path d="M482.3 445.6c1.1766-20.979 11.433-39.516 26.973-52.614 15.207-12.876 35.631-20.757 58.053-20.757 22.311 0 42.735 7.8699 57.942 20.757 15.54 13.098 25.752 31.635 26.973 52.614 1.1766 21.534-7.4925 41.625-22.644 56.499-15.54 15.096-37.518 24.642-62.271 24.642s-46.842-9.4794-62.271-24.642c-15.207-14.874-23.865-34.854-22.644-56.387999999999z" fill="#265787"/><path d="M349.1 490c.1443 8.214 2.7639 24.198 6.6933 36.63 8.2584 26.418 22.311 50.838 41.736 72.261 19.98 22.089 44.622 39.849 73.038 52.503 29.859 13.209 62.271 19.98 95.904 19.98 33.633-.0444 66.045-6.9264 95.904-20.313 28.416-12.765 53.058-30.525 73.038-52.725 19.536-21.645 33.522-46.065 41.736-72.483 4.1625-13.32 6.793200000001-26.862 7.8477-40.404 1.0323-13.32.5994-26.751-1.2987-40.182-3.7074-26.085-12.765-50.616-26.64-72.816-12.654-20.535-29.082-38.405999999999-48.618-53.502l.0444-.0333-196.47-150.96c-.1776-.1332-.3219-.2775-.5106-.3996-12.876-9.9012-34.632-9.8679-48.729.0555-14.319 10.0344-15.984 26.639999999999-3.219 37.074l-.0555.0555 82.029 66.711-249.75.2664h-.333c-20.646.0222-40.515 13.542-44.4 30.747-4.0404 17.427 9.99 31.968 31.524 31.968l-.0333.0777 126.54-.2442-226.44 173.16-.8658.6438c-21.312 16.317-28.194 43.512-14.763 60.606 13.653 17.427 42.624 17.538 64.158.0999l123.21-101.01s-1.7982 13.653-1.6539 21.756zm317.46 45.621c-25.419 25.863-61.05 40.626000000001-99.456 40.626000000001-38.517.0666-74.148-14.43-99.567-40.293-12.432-12.654-21.534-27.084-27.195-42.513-5.5167-15.207-7.659-31.302-6.2382-47.508 1.343100000001-15.873 6.0717-31.08 13.653-44.733 7.4148-13.431 17.649-25.641 30.192-35.964 24.753-20.091 56.166-31.08 89.022-31.08 32.967-.0444 64.38 10.7559 89.133 30.858 12.543 10.2564 22.755000000001 22.422 30.192 35.853 7.5813 13.653 12.321 28.749 13.653 44.733 1.3986 16.206-.7437 32.301-6.2604 47.508-5.6388 15.54-14.763 29.97-27.195 42.623999999999z" fill="#ea7600"/></g></svg>