<svg xmlns="http://www.w3.org/2000/svg" viewBox="0 0 120 120"><defs><clipPath id="A"><rect x="2" y="2" width="116" height="116" rx="11"/></clipPath></defs><g clip-path="url(#A)"><path fill="#181b1f" d="M2 2h116v116H2z"/><path fill="#101316" d="M2 20h116v98H2z"/><g stroke="#30333d" fill="none" stroke-linejoin="round" stroke-width="1.4"><path d="M60 74l34 17-34 17-34-17z"/><path d="M43 82.5l34 17"/><path d="M77 82.5l-34 17"/></g><path d="M60 58l20 10-20 10-20-10z" fill="#7db4f5"/><path d="M40 68l20 10v22L40 90z" fill="#3e78c8"/><path d="M80 68L60 78v22l20-10z" fill="#2f5fa0"/><path fill="#1e2127" d="M2 20h24v98H2z"/><rect x="7" y="27" width="14" height="14" rx="3" fill="#3e90ff"/><g fill="#33383f"><rect x="7" y="46" width="14" height="14" rx="3"/><rect x="7" y="65" width="14" height="14" rx="3"/><rect x="7" y="98" width="14" height="14" rx="3"/></g><path fill="#1e2127" d="M94 20h24v98H94z"/><g fill="#cacad4"><rect x="99" y="28" width="14" height="4" rx="2" opacity=".55"/><rect x="99" y="36" width="9" height="4" rx="2" opacity=".35"/><rect x="99" y="44" width="11" height="4" rx="2" opacity=".35"/><rect x="99" y="60" width="14" height="4" rx="2" opacity=".55"/><rect x="99" y="68" width="10" height="4" rx="2" opacity=".35"/></g><path fill="#0f1012" d="M2 2h116v18H2z"/><g fill="#cacad4"><rect x="9" y="8" width="16" height="5" rx="2" opacity=".6"/><rect x="30" y="8" width="11" height="5" rx="2" opacity=".6"/><rect x="46" y="8" width="14" height="5" rx="2" opacity=".6"/></g></g><rect x="2" y="2" width="116" height="116" rx="11" fill="none" stroke="#0f1012" stroke-width="2"/></svg>