<svg xmlns="http://www.w3.org/2000/svg" width="316" height="316" viewBox="0 0 48 48"><style><![CDATA[.B{fill-rule:evenodd}.C{stroke-miterlimit:10}.D{stroke:#888a85}]]></style><defs><linearGradient x1="-30.834505145746" y1="40.27193560092" x2="-36.765822548376" y2="41.525774430191" id="A" href="#N"><stop offset="0" stop-color="#fff"/><stop offset="1" stop-color="#fff" stop-opacity="0"/></linearGradient><radialGradient cx="15.415101" cy="35.356506" r="7.5791559" fx="15.415101" fy="35.356506" id="B" gradientTransform="matrix(1.572694,5.424952e-17,1.037922e-12,1.532639,-55.36682,-21.35823)" href="#N"><stop offset="0" stop-color="#696969"/><stop offset="1"/></radialGradient><linearGradient x1="-27.012215" y1="28.198475" x2="-23.297619" y2="31.635975" id="C" href="#N"><stop offset="0" stop-color="#bdbdbd"/><stop offset=".33333334" stop-color="#e2e2e2"/><stop offset=".66666669" stop-color="#a3a3a3"/><stop offset="1" stop-color="#ddd"/></linearGradient><linearGradient x1="-12.287321" y1="21.117612" x2="-21.551067" y2="13.060211" id="D" href="#N"><stop offset="0" stop-color="#6e3d09"/><stop offset=".24242425" stop-color="#ea8113"/><stop offset=".62121212" stop-color="#5c3307"/><stop offset="1" stop-color="#e07c12"/></linearGradient><linearGradient x1="6.3051529" y1="23.362427" x2="5.9846287" y2="31.57" id="E" href="#N"><stop offset="0" stop-color="#fff"/><stop offset="1" stop-color="#fff" stop-opacity="0"/></linearGradient><radialGradient cx="69.473244" cy="19.597878" r="3.5153139" fx="69.473244" fy="19.597878" id="F" gradientTransform="matrix(1.318488,1.207574e-15,-1.207574e-15,1.318488,-22.1264,-6.241691)" href="#N"><stop offset="0" stop-color="#fff"/><stop offset="1" stop-color="#b9b9b0"/></radialGradient><radialGradient cx="23" cy="33.9375" r="18.25" fx="23" fy="33.9375" id="G" gradientTransform="matrix(1,0,0,0.284247,0,24.29088)" href="#N"><stop offset="0"/><stop offset="1" stop-opacity="0"/></radialGradient><linearGradient x1="14.96875" y1="19.110678" x2="39.524544" y2="46.98568" id="H" href="#N"><stop offset="0" stop-color="#fff"/><stop offset="1" stop-color="#fff" stop-opacity="0"/></linearGradient><radialGradient cx="6.0242186" cy="25.271027" r="4.8310289" fx="6.0242186" fy="25.271027" id="I" gradientTransform="matrix(0.916159,9.318684e-2,-0.108765,1.069309,3.253668,-3.029272)" href="#N"><stop offset="0" stop-color="#5b676b"/><stop offset="1" stop-color="#141718"/></radialGradient><linearGradient x1="26.162951" y1="30.543303" x2="24.328892" y2="30.985245" id="J" href="#N"><stop offset="0"/><stop offset="1" stop-opacity="0"/></linearGradient><linearGradient x1="28.513587" y1="28.429326" x2="17.376654" y2="30.639035" id="K" href="#N"><stop offset="0"/><stop offset="1" stop-opacity="0"/></linearGradient><radialGradient cx="18.557627" cy="22.300018" r="19.2292" fx="18.557627" fy="22.300018" id="L" gradientTransform="matrix(1.77275,-1.847562e-16,1.351402e-16,1.29668,-16.3404,-6.615959)" href="#N"><stop offset="0" stop-color="#857c63"/><stop offset="1" stop-color="#221f19"/></radialGradient><path id="M" d="M 72.655224 21.837049 A 3.1819806 3.1819806 0 1 1  66.291263,21.837049 A 3.1819806 3.1819806 0 1 1  72.655224 21.837049 z"/><linearGradient id="N" gradientUnits="userSpaceOnUse"/></defs><g class="B"><path d="M 41.25 33.9375 A 18.25 5.1875 0 1 1  4.75,33.9375 A 18.25 5.1875 0 1 1  41.25 33.9375 z" transform="matrix(1 0 0 1.5301200000000001 .125 -19.99096)" fill="url(#G)"/><path d="M10.374369 12.467884s2.874509 5.927634 9.599242 5.760407c14.092515-.353553 16.563709-7.70495 16.917262-8.7656106s.894534-.8999979 1.019607.0802666c4.596194 41.7193-31.8969312 23.819176-33.1929656 16.71352 7.2478446-2.12132 5.4800776-6.187185 5.4800776-6.187185l.176777-7.601398z" fill="url(#L)" stroke="#2e3436" class="C"/><path d="M15.73779 30.066049c6.7389 1.347837 10.170691.098093 12.179175-1.452776-.53033-.68501-1.43631-1.436311-1.43631-1.436311s2.353317.653942 3.18198 1.723573.306808 1.723707.090561 3.08837c-.481411-1.198599-1.379981-1.648092-1.501634-2.124332-1.806268 2.496927-6.306442 2.3932-12.513772.201476z" fill="url(#K)"/></g><g class="C"><path d="M 36.96875,11.84375 C 36.406772,12.770645 35.562258,13.876916 34.28125,14.9375 C 31.649332,17.116542 27.230687,19.099847 20,19.28125 C 15.775627,19.386299 13.047259,17.347101 11.375,15.53125 L 11.25,20 C 11.386107,20.418802 11.665455,21.390498 11.1875,22.71875 C 10.673186,24.148046 9.032986,25.610113 6.21875,26.71875 C 6.4690804,27.240783 6.7142345,27.76237 7.46875,28.5 C 8.4967003,29.504945 9.9257833,30.588049 11.625,31.5625 C 15.023433,33.511402 19.426583,35.055712 23.53125,35.125 C 27.635917,35.194288 31.388376,33.89045 33.96875,30.125 C 36.347494,26.653782 37.651223,20.777057 36.96875,11.84375 z " opacity=".18539327" fill="none" stroke="url(#H)"/><g class="B"><use href="#M" transform="matrix(1.277778 0 0 1.277778 -75.12661 -6.507784)" fill="url(#F)" stroke-width=".78260845" class="D"/><g stroke="#000"><path d="M 10.429825 27.228739 A 4.3310289 6.0987959 0 1 1  1.767767,27.228739 A 4.3310289 6.0987959 0 1 1  10.429825 27.228739 z" transform="matrix(.810984 -.585069 .585069 .810984 -14.77791 6.947121)" fill="url(#I)"/><path d="M16.553152450612 21.997461864748c.000206366844.699534435343-.37287228993 1.346019218597-.978652510717 1.695846022774s-1.352191809067.349826804177-1.957972029854 0-.978858877561-.996311587431-.978652510717-1.695846022774.37287228993-1.346019218597.978652510717-1.695846022774 1.352191809067-.349826804177 1.957972029854 0 .978858877561.996311587431.978652510717 1.695846022774z" fill="#2e3436" stroke-width=".999999932432"/></g></g><path d="M 6.09375,22.15625 C 5.2955008,22.15625 4.5406196,22.602421 3.90625,23.5 C 3.2718804,24.397579 2.8125,25.734204 2.8125,27.21875 C 2.8125,28.703296 3.2718804,30.039921 3.90625,30.9375 C 4.5406196,31.835079 5.2955011,32.28125 6.09375,32.28125 C 6.8919992,32.28125 7.6710339,31.804861 8.3125,30.90625 C 8.9539661,30.007639 9.40625,28.700064 9.40625,27.21875 C 9.40625,25.737436 8.9539662,24.429861 8.3125,23.53125 C 7.6710338,22.632639 6.8919989,22.15625 6.09375,22.15625 z " transform="matrix(.800389 -.599481 .599481 .800389 -15.2744 7.32784)" opacity=".28089887" fill="none" stroke="url(#E)"/></g><g class="B"><path d="M5.833631 23.251263a1.767767 2.1213202 0 1 1-3.5355339 0 1.767767 2.1213202 0 1 1 3.5355339 0zm9.364212261502-2.15734280211c0 .748504261564-.606782593258 1.355286854822-1.355286854822 1.355286854822s-1.355286854822-.606782593258-1.355286854822-1.355286854822.606782593258-1.355286854822 1.355286854822-1.355286854822 1.355286854822.606782593258 1.355286854822 1.355286854822z" fill="#fff"/><g class="C"><use href="#M" transform="matrix(1.5 0 0 1.5 -82.16821 -10.91852)" fill="url(#F)" stroke-width=".66666645" class="D"/><path d="M25.455847 22.544157c.000242256688.821192455195-.437719568575 1.580109242681-1.148852747563 1.990775419643s-1.587355325887.410666176962-2.298488504874 0S20.859410743312 23.365349455195 20.859653 22.544157s.437719568575-1.580109242681 1.148852747563-1.990775419643 1.587355325887-.410666176962 2.298488504874 0S25.456089256688 21.722964544805 25.455847 22.544157z" fill="#2e3436" stroke="#000"/></g><path d="M23.8648553 21.4834965c0 .878679679819-.712310620181 1.5909903-1.5909903 1.5909903s-1.5909903-.712310620181-1.5909903-1.5909903.712310620181-1.5909903 1.5909903-1.5909903 1.5909903.712310620181 1.5909903 1.5909903z" fill="#fff"/></g><g transform="matrix(-.114852 -.389864 .389864 -.114852 24.71507 29.689420000000002)"><g stroke-width="2.46045303"><path d="M-23.364209 23.568336l3.710098 3.469175C-11.307128 20.656664-2.5600338 6.9381374-2.5600338 6.9381374c1.97631487-2.2424123-.1169199-3.7504826-2.1649066-2.3979188 0 0-12.9703626 10.1148664-18.6392686 19.0281174z" fill="url(#D)" stroke="#673907"/><path d="M-30.449715 32.813894l2.24632 1.93382 8.492766-7.367031.275061-.705828 1.094405-.017815c-.4375-1.5625-2.941514-4.383455-4.816514-4.383455l.082019 1.090075-.669991.380027-6.704066 9.070207z" fill="url(#C)" class="D"/></g><path d="M-23.801371 28.376767l-4.364933 5.266471" fill="none" stroke="#fff" stroke-width="2.46045327" stroke-linecap="round" stroke-linejoin="round"/><path d="M-45.341208 42.769835c10.443958 0 18.370039 1.24373 19.870605-6.354738 1.209249-6.123314-7.210534-9.057368-11.38287-3.590861-4.019277 5.265971-8.487735 9.945599-8.487735 9.945599z" fill="url(#B)"/><g fill="#fff"><path d="M-26.379733151893 36.62905825c.00026150383.924555589725-.492832842766 1.778992087531-1.293477915176 2.241345388484s-1.787155976266.462353300954-2.587801048676 1e-12-1.293739419007-1.316789798759-1.293477915177-2.241345388484.492832842766-1.778992087531 1.293477915176-2.241345388485 1.787155976266-.462353300954 2.587801048676-1e-12 1.293739419007 1.316789798759 1.293477915177 2.241345388484z" opacity=".52777782"/><path d="M-19.659824161336 26.84761475c.000176449956.623844755501-.33253942512 1.200376587647-.872775442284 1.512349913203s-1.205885179265.311973325557-1.74612119643 0-.872951892241-.888505157702-.872775442285-1.512349913203.33253942512-1.200376587647.872775442284-1.512349913204 1.205885179265-.311973325557 1.74612119643 0 .872951892241.888505157702.872775442285 1.512349913203z"/></g><path d="M-38.543723 40.909242s3.72152.0943 6.116538-1.411995c.847351-.532923 1.515774.649985.493819 1.087367-2.207394.944732-6.610357.324628-6.610357.324628z" opacity=".42777776" fill="url(#A)"/></g><path d="M23.003067 31.736544c1.497372.143092 2.849629-.272213 3.411893-.474047.098225-.555386.536552-1.621257 2.046088-1.691468l-.53033-.928077s-1.966641 1.347921-4.065864 1.745669l-.861787 1.347923z" fill="url(#J)" class="B"/></svg>