<svg xmlns="http://www.w3.org/2000/svg" viewBox="0 0 100 100"><circle cx="50" cy="50" r="49" fill="#0070e3"/><path d="M38.936592700629 62.112174054353c8.387946896216-.27754807495 13.990955049797-4.826168218433 17.401195659725-9.848085652232-12.072102916461-.637910394633-21.153281656521-3.157656098401-29.426045533585-10.421977078287 5.356522343487 7.439599178569 11.526750203638 13.213128841942 22.01541962469 16.089849881364-13.465145305832-1.0727366588-20.427209558721-9.714601558368-29.333286691906-24.438090957883l4.781112597107 10.63914168953c.619485769559 10.97104482265 6.173656737694 18.256710192458 14.56160434397 17.979162117509zm.32516111774 2.279589364459c13.036901293647-1.525428021119 19.863831984349-10.913373786405 21.873428307417-19.659241107529.801129652063 2.489497167152 1.449016383303 5.606686972084 2.166736050674 8.891259113558.609880794094-2.729958832066.560788697271-6.418419943332-.220941417963-11.172538419734 8.668183966663-7.905071612699 19.66487258978-1.007553192569 16.930329613292 7.928887009838-1.449191057951 1.855563105971-3.56206412172 4.41799048899-7.371886480239 6.13010736568 2.490272552175-.015124268309 3.941032131661-.600838185788 5.170409346207-1.292713105841-4.360564423288 5.71455921816-11.224504127535 7.530145971748-14.259177202683 8.436181951168 4.036661531062-2.838789658528 11.297516710309-10.917825859752 10.93671202353-18.18312672181-5.239680625238 18.016433143026-21.488687513375 23.364495127034-35.225610240234 18.921183914669z" fill="#fff" stroke-width=".187869684595" stroke="#fff" stroke-linejoin="round"/></svg>